/* XPM */
static const char * BT_MatML_Editor_32px_xpm[] = {
"32 32 36 1",
" 	c None",
".	c #FFFFFF",
"+	c #996666",
"@	c #CCCCCC",
"#	c #99CC99",
"$	c #999999",
"%	c #666666",
"&	c #663333",
"*	c #CCFFCC",
"=	c #999966",
"-	c #66CC66",
";	c #FFFFCC",
">	c #FFFF99",
",	c #669966",
"'	c #99CCCC",
")	c #99CC66",
"!	c #CC6666",
"~	c #FFFF00",
"{	c #999933",
"]	c #FFFF33",
"^	c #996633",
"/	c #FFFF66",
"(	c #33CC33",
"_	c #CC9999",
":	c #669999",
"<	c #00CC00",
"[	c #66CC99",
"}	c #993333",
"|	c #666633",
"1	c #FF6666",
"2	c #CCFFFF",
"3	c #CCCC99",
"4	c #660000",
"5	c #CCCC66",
"6	c #66CC33",
"7	c #669933",
"..........##....................",
"........<.##.-..................",
"........#[.#2./~~~/...#.........",
".......#.@@@*>...;~>.(#.........",
".......*#.=[;.>~];]>.*..#.......",
"......-#@.@..;];]//;(@#.*#*.....",
".......*.@@..>>;~>/.-,.[@.......",
"..........@-.;~;>]>(+..#@-......",
".........(,-..>/];.6@#.,#.......",
"........#*#$......+,-.@7-.......",
".......<#..@$....+$#.$+.........",
".......*#...$}$.+@.._+..........",
".......<#.$@..+&+$.++*#.........",
"........<-.@-$@+&+++............",
"........*..#*.+&+++..##.........",
"..........-#..@&++++-*..........",
"............(..++&@..#..........",
"............2..++&..............",
"..............@+++..............",
"..............+++$..............",
".............@}+++@.............",
"............@+++++&$@@@.........",
".......@++$&&++++++++++&@.......",
"......@%$@+++&+$+++!!^_$!$......",
".....@%%%+^^{}@@+&|_3)):_@......",
".....$%%|=^{{4@+)^=#%),':.......",
"......$%+)==)+!1===,%%%$@.......",
"......@${),^)=1!1+&%%%$@$@......",
"......$.{=+=,#!!+$@$$$$$@@......",
"......@.@++|#%%%$::+@@={$.......",
".........@''%%%%'''+$@{53.......",
"............@@@@''@@.@.........."};
